# xmcd
# Copyright (C) 1995-1998 Ti Kan
#
# Track frame offsets:
#       150
#       26311
#       48827
#       60432
#       66858
#       87497
#       104592
#       118043
#       138656
#       153847
#       164611
#       196975
#       210593
#       232530
#       246101
#
# Disc length: 3486 seconds
#
# Revision: 0
# Processed by: cddbd v1.5.2PL0 Copyright (c) Steve Scherf et al.
# Submitted via: CD-Import v1.0
#
DISCID=c40d9c0f
DTITLE=Of Montreal - Skeletal Lamping
DYEAR=2008
DGENRE=
TTITLE0=Nonpareil Of Favor
TTITLE1=Wicked Wisdom
TTITLE2=For Our Elegant Caste
TTITLE3=Touched Something's Hollow
TTITLE4=An Eluardian Instance
TTITLE5=Gallery Piece
TTITLE6=Women's Studies Victims
TTITLE7=St Exquisite's Confessione
TTITLE8=Triphallus To Punctuate!
TTITLE9=And I've Seen A Bloody Shadow
TTITLE10=Plastis Wafer
TTITLE11=Death Isn't A Parallel Move
TTITLE12=Beware Our Nubile Miscreants
TTITLE13=Mingusings
TTITLE14=Id Engager
EXTD=
EXTT0=
EXTT1=
EXTT2=
EXTT3=
EXTT4=
EXTT5=
EXTT6=
EXTT7=
EXTT8=
EXTT9=
EXTT10=
EXTT11=
EXTT12=
EXTT13=
EXTT14=
PLAYORDER=
